<svg version="1.0"
    xmlns="http://www.w3.org/2000/svg"
    xmlns:xlink="http://www.w3.org/1999/xlink" width="100%" height="100%" viewBox="0 0 340.000000 250.000000" preserveAspectRatio="xMidYMid meet" color-interpolation-filters="sRGB" class="el-tooltip" style="margin: auto;">
    <g transform="translate(3.280000686645508,62.286460876464844)">
        <g fill-rule="" class="tp-name iconsvg-namesvg">
            <g>
                <path d="M5.10-14.41L5.10-14.41L5.10-4.39Q5.10-2.46 6.33-1.93L6.33-1.93Q5.63 0.18 3.87 0.18L3.87 0.18Q1.41 0.18 2.11-8.96L2.11-8.96Q2.46-16.00 1.23-16.52L1.23-16.52Q1.41-18.63 3.52-18.63L3.52-18.63Q5.45-18.46 5.45-16.88L5.45-16.88Q5.45-16.52 5.27-15.64L5.27-15.64Q5.10-14.94 5.10-14.41ZM5.63-24.96L5.63-24.96Q5.45-23.03 3.69-22.85L3.69-22.85Q1.76-23.03 1.58-24.96L1.58-24.96Q1.76-27.07 3.69-27.25L3.69-27.25Q5.45-27.07 5.63-24.96ZM14.06-9.32L14.06-9.32L14.06-17.75Q14.06-22.15 9.67-23.55L9.67-23.55Q12.13-29.53 18.81-29.53L18.81-29.53Q30.06-29.00 30.41-20.57L30.41-20.57Q30.41-15.12 19.86-9.32L19.86-9.32Q18.28-8.61 17.75-8.26L17.75-8.26Q17.75-7.03 17.93-4.75L17.93-4.75Q17.93-2.64 17.93-1.58L17.93-1.58Q17.93 0.70 15.82 0.70L15.82 0.70Q13.54 0.70 13.54-1.58L13.54-1.58Q13.54-2.29 13.71-3.69L13.71-3.69Q14.06-5.10 14.06-5.98L14.06-5.98Q14.06-5.98 13.71-5.80L13.71-5.80Q12.83-5.27 12.48-5.27L12.48-5.27Q11.43-5.27 11.25-6.86L11.25-6.86Q11.25-7.03 11.43-7.38L11.43-7.38Q11.60-7.73 11.60-7.73L11.60-7.73Q12.30-8.61 14.06-9.32ZM17.75-19.34L17.75-19.34L17.75-11.43Q18.11-11.60 18.98-12.13L18.98-12.13Q24.96-14.94 24.79-18.63L24.79-18.63Q24.43-22.15 20.39-22.50L20.39-22.50Q17.75-22.50 17.75-19.34ZM36.04-14.41L36.04-14.41L36.04-4.39Q36.04-2.46 37.27-1.93L37.27-1.93Q36.56 0.18 34.80 0.18L34.80 0.18Q32.34 0.18 33.05-8.96L33.05-8.96Q33.40-16.00 32.17-16.52L32.17-16.52Q32.34-18.63 34.45-18.63L34.45-18.63Q36.39-18.46 36.39-16.88L36.39-16.88Q36.39-16.52 36.21-15.64L36.21-15.64Q36.04-14.94 36.04-14.41ZM36.56-24.96L36.56-24.96Q36.39-23.03 34.63-22.85L34.63-22.85Q32.70-23.03 32.52-24.96L32.52-24.96Q32.70-27.07 34.63-27.25L34.63-27.25Q36.39-27.07 36.56-24.96ZM53.79-7.38L53.79-7.38L54.14-7.21L54.14-6.68Q54.14-6.33 53.96-5.45L53.96-5.45Q53.61-4.57 53.61-4.04L53.61-4.04Q53.61-3.34 54.32-2.46L54.32-2.46Q54.67-1.76 54.67-1.58L54.67-1.58Q54.67-1.58 54.67-1.41L54.67-1.41Q54.49-1.23 54.49-1.05L54.49-1.05Q52.91-0.18 49.75 0.18L49.75 0.18Q42.36-0.35 41.66-8.26L41.66-8.26Q42.19-18.11 50.10-18.46L50.10-18.46Q53.44-18.28 53.61-16.17L53.61-16.17Q53.44-15.29 52.56-15.12L52.56-15.12Q52.21-15.12 51.50-15.64L51.50-15.64Q50.45-16.35 49.39-16.35L49.39-16.35Q45.35-16.00 45-10.72L45-10.72Q45.35-6.33 50.10-5.80L50.10-5.80Q51.68-5.80 52.56-6.50L52.56-6.50Q53.09-7.03 53.79-7.38Z" transform="translate(-1.23046875, 29.53125)"></path>
            </g>
        </g>
    </g>
</svg>